HIERARCHY
ROOT Hips
{
	OFFSET 0.00 0.00 0.00
	CHANNELS 6 Xposition Yposition Zposition Xrotation Yrotation Zrotation
	JOINT LeftUpLeg
	{
		OFFSET 3.77282 0.00000 0.00000
		CHANNELS 3 Xrotation Yrotation Zrotation
		JOINT LeftLeg
		{
			OFFSET 0.00000 -17.00973 0.00000
			CHANNELS 3 Xrotation Yrotation Zrotation
			JOINT LeftFoot
			{
				OFFSET 0.00000 -15.74253 0.00000
				CHANNELS 3 Xrotation Yrotation Zrotation
				JOINT LeftToeBase
				{
					OFFSET 0.00000 -1.60748 5.99922
					CHANNELS 3 Xrotation Yrotation Zrotation
					End Site
					{
						OFFSET 0.00000 0.00000 2.95275
					}
				}
			}
		}
	}
	JOINT RightUpLeg
	{
		OFFSET -3.77282 0.00000 0.00000
		CHANNELS 3 Xrotation Yrotation Zrotation
		JOINT RightLeg
		{
			OFFSET 0.00000 -17.00973 0.00000
			CHANNELS 3 Xrotation Yrotation Zrotation
			JOINT RightFoot
			{
				OFFSET 0.00000 -15.74253 0.00000
				CHANNELS 3 Xrotation Yrotation Zrotation
				JOINT RightToeBase
				{
					OFFSET 0.00000 -1.60748 5.99922
					CHANNELS 3 Xrotation Yrotation Zrotation
					End Site
					{
						OFFSET 0.00000 0.00000 2.95275
					}
				}
			}
		}
	}
	JOINT Spine
	{
		OFFSET 0.00000 0.03937 0.00000
		CHANNELS 3 Xrotation Yrotation Zrotation
		JOINT Spine1
		{
			OFFSET 0.00000 6.63707 0.00000
			CHANNELS 3 Xrotation Yrotation Zrotation
			JOINT Neck
			{
				OFFSET 0.00000 11.04423 0.00000
				CHANNELS 3 Xrotation Yrotation Zrotation
				JOINT Head
				{
					OFFSET 0.00000 5.48188 0.00000
					CHANNELS 3 Xrotation Yrotation Zrotation
					End Site
					{
						OFFSET 0.00000 4.52755 0.00000
					}
				}
			}
			JOINT LeftShoulder
			{
				OFFSET 0.00000 11.04423 0.00000
				CHANNELS 3 Xrotation Yrotation Zrotation
				JOINT LeftArm
				{
					OFFSET 6.93940 -0.00003 0.00000
					CHANNELS 3 Xrotation Yrotation Zrotation
					JOINT LeftForeArm
					{
						OFFSET 9.84774 -0.00004 0.00000
						CHANNELS 3 Xrotation Yrotation Zrotation
						JOINT LeftHand
						{
							OFFSET 9.01486 -0.00003 0.00000
							CHANNELS 3 Xrotation Yrotation Zrotation
							JOINT LeftHandThumb
							{
								OFFSET 0.00000 0.00000 0.00000
								CHANNELS 3 Xrotation Yrotation Zrotation
								End Site
								{
									OFFSET 0.00000 0.00000 3.93700
								}
							}
							JOINT L_Wrist_End
							{
								OFFSET 3.93700 -0.00001 0.00000
								CHANNELS 3 Xrotation Yrotation Zrotation
							}
						}
					}
				}
			}
			JOINT RightShoulder
			{
				OFFSET 0.00000 11.04423 0.00000
				CHANNELS 3 Xrotation Yrotation Zrotation
				JOINT RightArm
				{
					OFFSET -6.93940 -0.00003 0.00000
					CHANNELS 3 Xrotation Yrotation Zrotation
					JOINT RightForeArm
					{
						OFFSET -9.84774 -0.00004 0.00000
						CHANNELS 3 Xrotation Yrotation Zrotation
						JOINT RightHand
						{
							OFFSET -9.01486 -0.00003 0.00000
							CHANNELS 3 Xrotation Yrotation Zrotation
							JOINT RightHandThumb
							{
								OFFSET 0.00000 0.00000 0.00000
								CHANNELS 3 Xrotation Yrotation Zrotation
								End Site
								{
									OFFSET 0.00000 0.00000 3.93700
								}
							}
							JOINT R_Wrist_End
							{
								OFFSET -5.39369 -0.00002 0.00000
								CHANNELS 3 Xrotation Yrotation Zrotation
							}
						}
					}
				}
			}
		}
	}
}
MOTION
Frames: 14
Frame Time: 0.033332
 -2.7838 40.7889 0.7968 -2.2350 -3.1189 -1.6567 -4.4160 1.5258 1.9428 28.2654 -0.0000 0.0000 13.9228 1.2271 -8.9037 -16.3700 0.0000 0.0000 -3.7060 -5.3238 1.6543 27.2423 -0.0000 0.0000 14.6642 -1.5514 -4.7767 -14.3420 0.0000 -0.0000 -11.3086 0.5569 0.7971 18.2139 1.3124 -2.2801 19.9292 5.7008 7.4909 -28.5604 5.7314 -12.9749 6.0402 -3.2406 8.9391 5.3996 -13.4688 -72.6851 -0.0001 -13.8476 -0.0000 6.6563 4.9553 2.5528 -0.0000 0.0000 -0.0000 -0.0000 0.0000 -0.0000 8.2883 3.3022 -4.7238 12.4906 10.2118 73.5240 -0.0001 16.3719 0.0000 1.4427 27.6887 -20.4382 -0.0000 -0.0000 0.0000 -0.0000 -0.0000 0.0000
 -2.7913 40.0262 0.8856 -1.3000 -3.0985 -1.6546 -4.3398 3.0861 2.1327 26.0268 -0.0000 0.0000 12.3853 2.4417 -9.6492 -16.6382 0.0000 0.0000 -4.0323 -7.3968 1.6873 25.1050 -0.0000 0.0000 14.4726 -0.3829 -5.9044 -15.9256 0.0000 0.0000 -13.0579 0.4425 0.7984 19.2527 1.1806 -2.3836 19.9111 6.1711 7.3330 -29.0946 5.3329 -12.9431 6.6331 -3.1386 8.4510 4.3956 -11.7218 -72.1242 -0.0001 -13.9699 -0.0000 6.0982 4.5341 3.6772 -0.0000 -0.0000 0.0000 -0.0000 -0.0000 0.0000 8.5769 3.2308 -4.0299 10.9150 9.0916 73.6476 -0.0001 16.8403 0.0000 1.6171 27.7704 -20.4008 -0.0000 0.0000 -0.0000 -0.0000 0.0000 -0.0000
 -2.7643 38.8258 0.9035 -0.7988 -3.1164 -1.6814 -4.4550 3.6997 2.2469 25.1345 -0.0000 0.0000 11.8026 3.6964 -9.6858 -16.7147 0.0000 0.0000 -4.6207 -8.0055 1.5155 24.3673 -0.0000 0.0000 14.7561 2.2072 -1.9512 -14.2692 0.0000 0.0000 -13.8034 0.3293 0.8475 19.5642 1.0581 -2.4039 20.9026 6.6077 7.3375 -31.0461 5.2563 -13.5917 6.3962 -3.7539 7.4197 4.2023 -10.3340 -71.1231 -0.0000 -12.8948 -0.0000 5.6760 5.0333 3.9024 -0.0000 0.0000 -0.0000 -0.0000 0.0000 -0.0000 8.5047 4.0807 -2.9492 10.3882 9.3924 73.1002 -0.0001 16.1043 0.0000 0.7645 27.9940 -20.5935 -0.0000 0.0000 -0.0000 -0.0000 0.0000 -0.0000
 -2.7306 37.1602 0.8524 -0.8832 -3.0858 -1.7486 -4.6727 3.0315 2.3886 26.7400 -0.0000 0.0000 9.5914 2.7341 -8.6064 -29.1236 0.0000 0.0000 -5.2903 -6.8742 1.3441 26.0725 -0.0000 0.0000 13.2068 3.5099 -1.3028 -23.7344 0.0000 -0.0000 -12.4682 0.3306 0.8691 17.8780 1.0885 -2.2909 22.4029 6.5887 7.6540 -32.9930 5.8115 -14.4312 5.8521 -4.3580 6.4685 4.3340 -8.6896 -70.3279 -0.0000 -12.2743 -0.0000 5.5734 5.8146 4.0129 -0.0000 0.0000 -0.0000 -0.0000 0.0000 -0.0000 8.3562 4.8176 -1.8823 10.3394 10.0511 72.5894 -0.0001 14.8793 0.0000 -0.0607 28.1358 -20.6596 -0.0000 -0.0000 0.0000 -0.0000 -0.0000 0.0000
 -2.6824 35.1098 0.8703 -1.8014 -3.0158 -1.7016 -4.7320 2.4946 1.9787 33.3223 -0.0000 0.0000 -10.9700 3.0481 -4.1588 -20.9171 0.0000 0.0000 -5.8008 -6.2040 1.2582 33.3696 -0.0000 0.0000 -5.1739 4.4271 -11.2067 -22.2793 0.0000 0.0000 -10.2117 0.4063 0.8304 15.7024 1.2397 -2.0413 22.2571 6.9940 7.1696 -32.2516 5.4167 -14.0848 5.2998 -4.2980 6.0162 4.1382 -7.7755 -70.1842 -0.0000 -12.0901 -0.0000 5.0452 5.6060 5.0321 -0.0000 -0.0000 0.0000 -0.0000 -0.0000 0.0000 7.9520 5.1196 -1.3696 10.2231 9.4824 72.7647 -0.0001 13.9677 0.0000 -0.0477 28.6397 -21.5401 -0.0000 0.0000 -0.0000 -0.0000 0.0000 -0.0000
 -2.6515 33.2243 0.4939 -0.8668 -2.9438 -1.9476 -10.8328 1.4535 1.1949 44.8015 -0.0000 0.0000 -25.5350 7.1795 0.9522 -12.7551 0.0000 0.0000 -11.9451 -3.8748 3.0403 44.8289 -0.0000 0.0000 -17.9639 -2.0401 -18.2022 -15.8547 0.0000 -0.0000 -8.4312 0.4706 0.7236 14.0004 1.5540 -1.2910 18.5144 6.2128 6.7606 -29.9628 5.6387 -12.6797 3.7484 -3.5277 5.7704 3.3630 -6.8624 -70.4351 -0.0001 -14.2196 -0.0000 5.1047 6.4385 5.8339 -0.0000 -0.0000 0.0000 -0.0000 -0.0000 0.0000 5.9752 4.3198 -1.2563 10.1813 8.9514 73.2860 -0.0001 15.0137 0.0000 0.9541 29.1193 -24.0748 -0.0000 0.0000 -0.0000 -0.0000 0.0000 -0.0000
 -2.5436 32.3475 0.2429 1.1953 -3.0525 -1.7582 -15.8777 1.4920 0.7514 50.8335 -0.0000 0.0000 -30.1354 8.0427 2.1345 -11.1619 0.0000 0.0000 -17.0149 -3.0506 3.4158 50.7628 -0.0000 0.0000 -22.6423 -4.2549 -20.6158 -14.3905 0.0000 0.0000 -13.9006 0.5072 0.7152 21.5291 1.8513 -0.9439 12.0599 4.8188 6.6156 -28.2867 6.6134 -11.6954 4.0863 -2.6004 6.7652 -1.3373 -8.0912 -71.9550 -0.0001 -16.2858 -0.0000 5.2132 6.1812 4.7841 -0.0000 0.0000 -0.0000 -0.0000 0.0000 -0.0000 5.6157 3.1166 -2.3860 6.9756 10.7985 74.2525 -0.0001 18.1601 0.0000 0.5959 29.5159 -24.3299 -0.0000 -0.0000 0.0000 -0.0000 -0.0000 0.0000
 -2.4155 32.8407 0.4753 -0.9139 -2.9281 -1.2925 -12.2850 3.8738 0.8962 47.9153 -0.0000 0.0000 -26.6837 5.6493 1.7439 -13.1075 0.0000 -0.0000 -13.4769 -5.0257 1.5397 48.1621 -0.0000 0.0000 -19.7339 -1.5839 -19.1195 -16.5593 0.0000 -0.0000 -15.8648 0.4860 0.6316 27.2781 1.8582 -1.0381 10.4153 5.0922 6.3787 -29.8796 6.7967 -11.9126 5.1516 -3.2387 6.8639 -2.8194 -11.0211 -72.5608 -0.0001 -16.6342 -0.0000 5.2332 5.2622 4.8395 -0.0000 0.0000 -0.0000 -0.0000 0.0000 -0.0000 6.8172 3.1705 -2.5426 5.9429 13.6736 74.4012 -0.0001 20.6240 0.0000 0.3080 30.7023 -23.5410 -0.0000 0.0000 -0.0000 -0.0000 0.0000 -0.0000
 -2.2748 34.2947 0.7710 -1.2379 -2.6235 -0.8800 -8.3288 6.3264 1.1578 39.7046 -0.0000 0.0000 -16.1183 2.1674 -1.0251 -17.5577 0.0000 -0.0000 -9.1014 -6.5788 0.2014 39.4058 -0.0000 0.0000 -11.0202 1.3442 -15.2977 -17.5269 0.0000 0.0000 -14.4906 0.2728 0.5522 23.5272 1.5431 -1.1481 14.1950 6.3664 6.0701 -30.5480 5.9820 -12.3765 5.0933 -4.1871 7.2650 -0.0955 -14.5927 -74.0864 -0.0001 -14.5782 -0.0000 6.0140 5.3839 4.7908 -0.0000 -0.0000 0.0000 -0.0000 -0.0000 0.0000 7.6522 3.9589 -3.5058 7.6792 15.4738 76.5025 -0.0001 19.5860 0.0000 0.7422 30.9330 -21.5325 -0.0000 -0.0000 0.0000 -0.0000 -0.0000 0.0000
 -2.0808 36.3212 1.2129 -1.4270 -2.5732 -0.0721 -3.7598 7.4402 0.4373 29.0125 -0.0000 0.0000 2.3354 -1.0913 -5.0494 -27.5805 0.0000 -0.0000 -3.6324 -5.6101 -1.0350 27.3106 -0.0000 0.0000 3.0457 3.6144 -4.8532 -19.7244 0.0000 -0.0000 -11.6536 0.3585 0.3681 16.2389 1.4239 -1.6192 18.8457 6.1270 6.7486 -28.0122 6.0210 -13.4707 6.1148 -4.2390 7.1247 1.9553 -15.0978 -75.3681 -0.0000 -13.1032 -0.0000 7.1326 6.3366 3.8300 -0.0000 0.0000 -0.0000 -0.0000 0.0000 -0.0000 9.4350 4.0360 -3.5672 9.6183 14.7344 78.0745 -0.0001 17.9973 0.0000 1.4457 29.7145 -20.5657 -0.0000 -0.0000 0.0000 -0.0000 -0.0000 0.0000
 -1.9171 38.3302 1.5312 -1.2266 -2.8069 0.3037 -1.0144 5.4033 -0.0119 19.8053 -0.0000 0.0000 20.2287 -2.2232 -12.7322 -25.7115 0.0000 -0.0000 -0.0050 -3.6354 -1.6882 16.5033 -0.0000 0.0000 20.7728 4.3341 1.4586 -19.1066 0.0000 0.0000 -9.9853 0.3950 0.3254 11.2986 1.3951 -1.8403 22.0829 4.6987 8.4195 -26.2639 7.7681 -15.9901 7.0163 -3.4433 7.2494 2.6776 -13.2338 -76.3794 -0.0000 -12.9784 -0.0000 8.2744 6.7508 3.6410 -0.0000 -0.0000 0.0000 -0.0000 -0.0000 0.0000 10.9643 3.9253 -3.4554 10.9765 12.9549 78.2502 -0.0001 17.7277 0.0000 1.6996 28.9264 -19.6876 -0.0000 0.0000 -0.0000 -0.0000 0.0000 -0.0000
 -1.7718 39.8831 1.6149 -1.6520 -2.8611 0.3456 -1.3349 3.3848 0.0340 19.6660 -0.0000 0.0000 28.1366 -0.8594 -16.5136 -15.9066 0.0000 0.0000 -0.3240 -3.3198 -2.0086 17.7434 -0.0000 0.0000 26.6378 4.1573 0.9015 -12.5130 0.0000 -0.0000 -8.6143 0.3184 0.2807 9.6899 1.3295 -1.8103 24.5468 5.4505 9.1482 -29.4423 8.0183 -17.9238 7.1580 -3.4477 6.7118 3.5179 -12.2178 -75.4374 -0.0000 -13.1802 -0.0000 7.7773 6.0580 3.7795 -0.0000 0.0000 -0.0000 -0.0000 0.0000 -0.0000 11.3858 4.3967 -2.8117 11.8824 11.2445 76.8058 -0.0001 17.0254 0.0000 3.9658 28.2655 -19.6540 -0.0000 0.0000 -0.0000 -0.0000 0.0000 -0.0000
 -1.6304 40.9849 1.5193 -2.6823 -2.9234 0.1145 -2.6171 1.6564 0.1729 24.9292 -0.0000 0.0000 25.8720 -1.1532 -14.0504 -15.9278 0.0000 -0.0000 -2.3029 -2.3306 -1.6885 26.2959 -0.0000 0.0000 24.7376 3.4508 0.6521 -9.9562 0.0000 0.0000 -7.6191 0.2290 0.3380 10.5115 1.2276 -1.8035 27.3878 8.3547 8.8037 -36.0221 6.8574 -18.8869 6.4819 -4.5117 5.4081 4.7920 -12.6868 -73.0402 -0.0000 -12.5748 -0.0000 7.2908 6.0118 5.3737 -0.0000 0.0000 -0.0000 -0.0000 0.0000 -0.0000 10.8019 5.6343 -1.7318 12.6381 11.2362 74.6758 -0.0001 15.1891 0.0000 3.6650 28.1092 -21.8451 -0.0000 0.0000 -0.0000 -0.0000 0.0000 -0.0000
 -1.5335 41.6031 1.3773 -3.5921 -3.4235 -0.1535 -3.2945 1.0913 0.4212 28.2503 -0.0000 0.0000 24.0055 -2.0601 -12.6778 -16.2745 0.0000 -0.0000 -3.4390 -2.2423 -1.1918 31.4465 -0.0000 0.0000 23.0035 2.9354 -1.1039 -9.7856 0.0000 0.0000 -6.7795 0.2910 0.3981 11.5676 1.2496 -1.9102 26.8393 9.3907 7.8427 -35.8224 5.8964 -17.6840 5.9222 -4.9993 5.2695 5.4707 -12.8460 -71.8552 -0.0000 -12.7561 -0.0000 6.2885 6.8986 6.6924 -0.0000 -0.0000 0.0000 -0.0000 -0.0000 0.0000 9.9070 6.2029 -1.8011 12.9632 11.7521 74.0556 -0.0001 14.7203 0.0000 1.8553 28.0415 -23.5355 -0.0000 -0.0000 0.0000 -0.0000 -0.0000 0.0000
